<svg width="16" height="16" viewBox="0 0 16 16" fill="none" xmlns="http://www.w3.org/2000/svg">
<path d="M2 13.6L5 10.512L7.14 12.576L10.14 9.488L14 13.6H2ZM2 1.6H7V8L4.5 6.8L2 8M14 0H2C1.46957 0 0.960859 0.168571 0.585786 0.468629C0.210714 0.768687 0 1.17565 0 1.6V14.4C0 14.8243 0.210714 15.2313 0.585786 15.5314C0.960859 15.8314 1.46957 16 2 16H14C14.5304 16 15.0391 15.8314 15.4142 15.5314C15.7893 15.2313 16 14.8243 16 14.4V1.6C16 1.17565 15.7893 0.768687 15.4142 0.468629C15.0391 0.168571 14.5304 0 14 0Z" fill="#333333"/>
</svg>
